<?xml version="1.0" standalone="no"?>
<!DOCTYPE svg PUBLIC "-//W3C//DTD SVG 20010904//EN"
 "http://www.w3.org/TR/2001/REC-SVG-20010904/DTD/svg10.dtd">
<svg version="1.0" xmlns="http://www.w3.org/2000/svg"
 width="700.000000pt" height="700.000000pt" viewBox="0 0 700.000000 700.000000"
 preserveAspectRatio="xMidYMid meet">
<metadata>
Created by potrace 1.11, written by Peter Selinger 2001-2013
</metadata>
<g transform="translate(0.000000,700.000000) scale(0.100000,-0.100000)"
fill="#000000" stroke="none">
<path d="M1 3500 l0 -3499 3497 2 3497 2 0 495 0 495 -50 2 c-68 2 -136 3
-157 3 -10 0 -42 0 -70 0 -70 1 -169 1 -188 1 -8 0 -67 0 -130 0 -160 1 -246
0 -256 -2 -5 -1 -40 -1 -78 0 -63 1 -68 3 -63 21 3 11 1 20 -5 20 -5 0 -7 4
-4 8 7 11 10 187 7 337 -1 32 0 115 2 178 1 31 -2 57 -7 57 -5 0 -3 6 3 13 6
8 8 16 5 19 -2 3 -5 43 -4 89 2 209 1 239 -5 249 -4 6 -61 10 -148 10 -149 0
-197 0 -467 1 -91 0 -216 0 -278 0 -73 -1 -111 3 -107 9 4 6 6 77 5 158 -1 81
-1 154 -1 162 0 8 0 80 0 160 0 80 0 152 0 160 0 8 0 78 0 155 0 77 0 152 0
168 1 26 -1 27 -46 27 -27 0 -55 0 -63 1 -8 0 -55 0 -105 -1 -49 0 -107 1
-128 3 -21 1 -40 0 -42 -3 -2 -3 -27 -3 -57 0 -29 3 -81 3 -115 0 -35 -3 -63
-3 -63 1 0 4 -15 3 -32 0 -18 -4 -54 -4 -80 -1 -27 4 -48 4 -48 0 0 -3 -25 -3
-55 0 -30 3 -55 4 -55 1 0 -4 -24 -4 -54 -3 l-55 4 -1 36 c0 21 -1 44 -1 52 0
17 0 155 0 185 1 11 1 34 0 50 0 17 0 37 0 45 1 8 1 33 0 55 0 22 -1 45 0 50
1 54 2 242 1 250 -1 6 -2 15 -1 20 1 6 2 37 1 70 0 33 0 88 0 123 l1 63 -38
-1 c-21 -1 -92 -2 -158 -1 -66 0 -129 0 -140 0 -11 0 -112 0 -225 0 -113 0
-257 0 -320 -1 l-115 0 -2 293 c-2 162 -3 303 -4 314 -1 25 0 319 1 361 0 20
-5 34 -15 38 -8 3 -15 1 -15 -5 0 -6 -5 -7 -11 -3 -6 3 -56 5 -112 4 -56 -1
-111 -1 -122 0 -11 1 -24 1 -30 1 -17 0 -268 0 -310 0 -22 0 -84 0 -138 -1
-54 0 -102 2 -107 5 -6 3 -10 3 -10 -2 0 -6 -63 -8 -122 -4 -4 1 -7 11 -7 24
1 12 1 72 0 132 0 61 0 117 0 125 0 8 0 38 0 65 0 28 0 59 0 70 0 37 0 180 0
195 -1 62 0 249 2 312 l2 77 -235 1 c-284 1 -243 1 -470 0 -47 -1 -96 0 -110
0 -14 1 -31 2 -37 1 -87 -2 -146 -1 -149 2 -3 2 -4 42 -4 88 1 46 1 93 1 104
0 11 0 85 0 165 0 80 0 152 0 160 0 8 0 80 0 160 0 80 0 152 0 160 0 8 -1 47
-2 87 l-1 72 -498 0 -499 -1 0 -3498z"/>
</g>
</svg>
